<svg xmlns="http://www.w3.org/2000/svg" xmlns:xlink="http://www.w3.org/1999/xlink" width="1366" zoomAndPan="magnify" viewBox="0 0 1024.5 576" height="768" preserveAspectRatio="xMidYMid meet" version="1.0"><defs><clipPath id="abcebafb22"><path d="M 75.449219 0.140625 L 949.050781 0.140625 L 949.050781 544 L 75.449219 544 Z M 75.449219 0.140625 " clip-rule="nonzero"/></clipPath><clipPath id="64e238af64"><path d="M 874.050781 0.140625 L 150.449219 0.140625 C 109.027344 0.140625 75.449219 33.71875 75.449219 75.140625 L 75.449219 325.683594 C 75.449219 366.523438 108.554688 399.628906 149.394531 399.628906 C 169.007812 399.628906 187.8125 407.417969 201.679688 421.285156 C 215.546875 435.152344 223.339844 453.960938 223.339844 473.570312 L 223.339844 501.140625 C 223.339844 516.332031 231.550781 530.339844 244.8125 537.757812 C 258.070312 545.171875 274.304688 544.84375 287.25 536.890625 L 446.859375 438.875 C 488.648438 413.210938 536.730469 399.628906 585.769531 399.628906 L 874.050781 399.628906 C 915.472656 399.628906 949.050781 366.050781 949.050781 324.628906 L 949.050781 75.140625 C 949.050781 33.71875 915.472656 0.140625 874.050781 0.140625 Z M 874.050781 0.140625 " clip-rule="nonzero"/></clipPath></defs><g clip-path="url(#abcebafb22)"><g clip-path="url(#64e238af64)"><path fill="#101d42" d="M 75.449219 0.140625 L 949.050781 0.140625 L 949.050781 576.140625 L 75.449219 576.140625 Z M 75.449219 0.140625 " fill-opacity="1" fill-rule="nonzero"/></g></g></svg>