<svg xmlns="http://www.w3.org/2000/svg" xmlns:xlink="http://www.w3.org/1999/xlink" width="1366" zoomAndPan="magnify" viewBox="0 0 1024.5 576" height="768" preserveAspectRatio="xMidYMid meet" version="1.0"><defs><clipPath id="42ae3687c1"><path d="M 0 131.179688 L 1024 131.179688 L 1024 437 L 0 437 Z M 0 131.179688 " clip-rule="nonzero"/></clipPath><clipPath id="5130d49686"><path d="M 1005.75 131.179688 L 18.75 131.179688 C 13.777344 131.179688 9.007812 133.15625 5.492188 136.671875 C 1.976562 140.1875 0 144.957031 0 149.929688 L 0 335.507812 C 0 340.480469 1.976562 345.25 5.492188 348.765625 C 9.007812 352.28125 13.777344 354.257812 18.75 354.257812 L 57.363281 354.257812 C 62.335938 354.257812 67.105469 356.234375 70.621094 359.75 C 74.136719 363.265625 76.113281 368.035156 76.113281 373.007812 L 76.113281 426.351562 C 76.113281 430.148438 78.164062 433.652344 81.480469 435.503906 C 84.792969 437.359375 88.851562 437.277344 92.089844 435.289062 L 208.0625 364.070312 C 218.507812 357.652344 230.527344 354.257812 242.789062 354.257812 L 1005.75 354.257812 C 1010.722656 354.257812 1015.492188 352.28125 1019.007812 348.765625 C 1022.523438 345.25 1024.5 340.480469 1024.5 335.507812 L 1024.5 149.929688 C 1024.5 144.957031 1022.523438 140.1875 1019.007812 136.671875 C 1015.492188 133.15625 1010.722656 131.179688 1005.75 131.179688 Z M 1005.75 131.179688 " clip-rule="nonzero"/></clipPath></defs><g clip-path="url(#42ae3687c1)"><g clip-path="url(#5130d49686)"><path fill="#101d42" d="M 0 131.179688 L 1024.5 131.179688 L 1024.5 445.101562 L 0 445.101562 Z M 0 131.179688 " fill-opacity="1" fill-rule="nonzero"/></g></g></svg>